# xmcd
# Track frame offsets:
# 150
# 14936
# 29480
# 40843
# 53443
# 69100
# 84038
# 94466
# 108062
# 121342
# 135226
# 150355
# 162350
# 177207
# 189704
# 203382
# 215737
# 227580
# 241893
# 254648
#
# Disc length: 3628 seconds
# Revision: 0
# Processed by: cddbd v1.5.2PL0 Copyright (c) Steve Scherf et al.
# Submitted via: VisiTrax 2.11.2.271 - For more info visit www.synapsa.com
#
DISCID=fe0e2a14
DTITLE=George Jones - Who's Gonna Fill Their Shoes and Wine Colored Roses
DYEAR=1985
DGENRE=Country
TTITLE0=Who's Gonna Fill Their Shoes
TTITLE1=Just When
TTITLE2=The One I Loved Back Then (The Complete Song)
TTITLE3=If I Painted A Picture
TTITLE4=If You Can Touch Her At All (with Lynn Anderson)
TTITLE5=Somebody Wants Me Out Of The Way
TTITLE6=Whole Lot Of Trouble For You
TTITLE7=If Only You'd Love Me Again
TTITLE8=Call The Wrecker for My Heart
TTITLE9=That's Good - That's Bad (with Lacy J. Dalton)
TTITLE10=Wine Colored Roses
TTITLE11=I Turn To You
TTITLE12=The Right Left Hand
TTITLE13=Don't Leave Without Taking Your Silver
TTITLE14=The Very best Of Me
TTITLE15=Hopelessly Yours
TTITLE16=You Never Looked That Good When You Were Mine (with Patti Page)
TTITLE17=If Only Your Eyes Could Lie
TTITLE18=Ol' Frank
TTITLE19=These Ols Eyes Have Seen It All
EXTD=
EXTT0=
EXTT1=
EXTT2=
EXTT3=
EXTT4=
EXTT5=
EXTT6=
EXTT7=
EXTT8=
EXTT9=
EXTT10=
EXTT11=
EXTT12=
EXTT13=
EXTT14=
EXTT15=
EXTT16=
EXTT17=
EXTT18=
EXTT19=
PLAYORDER=
